<?xml version="1.0" encoding="UTF-8" standalone="no"?><!DOCTYPE svg PUBLIC "-//W3C//DTD SVG 1.1//EN" "http://www.w3.org/Graphics/SVG/1.1/DTD/svg11.dtd"><svg width="100%" height="100%" viewBox="0 0 333 80" version="1.1" xmlns="http://www.w3.org/2000/svg" xmlns:xlink="http://www.w3.org/1999/xlink" xml:space="preserve" xmlns:serif="http://www.serif.com/" style="fill-rule:evenodd;clip-rule:evenodd;stroke-linejoin:round;stroke-miterlimit:1.41421;"><rect id="Artboard1" x="0" y="0" width="332.028" height="79.98" style="fill:none;"/><g><path d="M5.253,73.242c0,2.007 1.424,3.74 4.27,3.74c2.736,0 4.16,-1.825 4.16,-3.833l0,-72.161l4.927,0l0,70.429c0,4.196 -2.19,7.572 -9.087,7.572c-6.897,0 -9.196,-3.557 -9.196,-7.846l0,-70.155l4.926,0l0,72.254Z" style="fill:#003c6c;fill-rule:nonzero;"/><path d="M47.074,53.535l0,17.608c0,4.289 -2.189,7.846 -9.086,7.846c-6.898,0 -9.416,-3.376 -9.416,-7.572l0,-61.49c0,-4.743 0.657,-9.397 9.416,-9.397c8.538,0 9.086,4.654 9.086,9.306l0,14.596l-4.926,0l0,-17.059c0,-2.281 -0.22,-4.927 -4.16,-5.018c-3.833,0 -4.489,2.646 -4.489,5.018l0,65.776c0,2.008 1.752,3.833 4.489,3.833c2.846,-0.09 4.16,-1.733 4.16,-3.74l0,-19.707l4.926,0Z" style="fill:#003c6c;fill-rule:nonzero;"/><path d="M81.119,78.989c-8.759,0 -9.415,-4.652 -9.415,-9.397l0,-16.057l4.818,0l0,18.521c0,2.462 0.766,5.11 4.488,5.11c4.05,-0.094 4.269,-2.829 4.269,-5.11l0,-16.878c0,-2.554 -0.547,-4.014 -1.203,-6.476c-0.986,-3.743 -2.191,-5.75 -4.051,-9.215l-4.818,-9.215c-1.641,-3.011 -2.19,-4.926 -2.847,-8.211c-0.656,-3.193 -0.656,-5.2 -0.656,-8.485l0,-3.74c0,-4.652 0.656,-9.306 9.197,-9.306c8.757,0 9.305,4.745 9.305,9.397l0,14.324l-4.927,0l0,-16.878c0,-2.372 -0.547,-5.018 -4.269,-5.018c-4.051,0.091 -4.488,2.737 -4.488,5.018l0,5.018c0,3.283 0.109,5.382 0.766,8.757c0.656,3.012 1.313,4.837 2.846,7.755l4.598,8.759c0.985,2.099 2.737,5.017 3.723,8.302c1.094,3.465 1.751,5.018 1.751,9.03l0,14.691c0,4.652 -0.548,9.214 -9.087,9.304Z" style="fill:#003c6c;fill-rule:nonzero;"/><path d="M113.961,35.564l0,-28.191c0,-2.281 -0.219,-4.927 -4.268,-5.018c-3.723,0 -4.379,2.646 -4.379,5.018l0,28.191l8.647,0Zm4.817,42.878l-4.817,0l0,-39.777l-8.647,0l0,39.777l-4.928,0l0,-68.515c0,-4.743 0.657,-9.397 9.416,-9.397c8.539,0 8.976,4.654 8.976,9.306l0,68.606Z" style="fill:#003c6c;fill-rule:nonzero;"/><path d="M142.973,47.789l0,-46.894l4.816,0l0,77.547l-4.816,0l0,-14.781l-8.759,-41.6l0,56.381l-4.816,0l0,-77.547l4.378,0l9.197,46.894Z" style="fill:#003c6c;fill-rule:nonzero;"/><path d="M175.159,3.815l-7.228,0l0,74.627l-4.925,0l0,-74.627l-7.006,0l0,-2.827l19.159,0l0,2.827Z" style="fill:#003c6c;fill-rule:nonzero;"/><path d="M197.054,35.564l0,-28.191c0,-2.281 -0.219,-4.927 -4.27,-5.018c-3.725,0 -4.379,2.646 -4.379,5.018l0,28.191l8.649,0Zm4.815,42.878l-4.815,0l0,-39.777l-8.649,0l0,39.777l-4.927,0l0,-68.515c0,-4.743 0.656,-9.397 9.415,-9.397c8.538,0 8.976,4.654 8.976,9.306l0,68.606Z" style="fill:#003c6c;fill-rule:nonzero;"/><path d="M245.768,53.535l0,17.608c0,4.289 -2.19,7.846 -9.086,7.846c-6.898,0 -9.417,-3.376 -9.417,-7.572l0,-61.49c0,-4.743 0.657,-9.397 9.417,-9.397c8.538,0 9.086,4.654 9.086,9.306l0,14.596l-4.929,0l0,-17.059c0,-2.281 -0.216,-4.927 -4.157,-5.018c-3.832,0 -4.488,2.646 -4.488,5.018l0,65.776c0,2.008 1.75,3.833 4.488,3.833c2.847,-0.09 4.157,-1.733 4.157,-3.74l0,-19.707l4.929,0Z" style="fill:#003c6c;fill-rule:nonzero;"/><path d="M268.21,3.905c-0.876,-0.364 -2.191,-0.729 -3.613,-0.729l-2.957,0l0,33.209l2.301,0c2.078,0 4.158,-0.913 5.036,-2.008c0.765,-0.821 1.205,-3.284 1.205,-5.382l0,-20.71c0,-2.19 -0.33,-3.649 -1.972,-4.38Zm1.972,74.537l0,-32.842c0,-2.282 -0.33,-4.654 -1.864,-5.657c-1.532,-1.095 -2.627,-1.369 -4.487,-1.369l-2.191,0l0,39.868l-4.927,0l0,-77.364l8.758,0c1.315,0 4.929,0.183 7.229,1.915c2.409,1.733 2.409,4.106 2.409,6.843l0,20.71c0,1.46 -0.221,2.462 -1.204,3.741c-1.097,1.458 -3.833,2.827 -4.053,2.918c0.22,0.092 2.41,1.279 3.395,2.464c1.752,1.825 1.862,3.649 1.862,5.747l0,33.026l-4.927,0Z" style="fill:#003c6c;fill-rule:nonzero;"/><path d="M289.997,73.242c0,2.007 1.421,3.74 4.269,3.74c2.737,0 4.16,-1.825 4.16,-3.833l0,-72.161l4.925,0l0,70.429c0,4.196 -2.188,7.572 -9.085,7.572c-6.897,0 -9.196,-3.557 -9.196,-7.846l0,-70.155l4.927,0l0,72.254Z" style="fill:#003c6c;fill-rule:nonzero;"/><path d="M324.81,3.815l-10.621,0l0,-2.92l16.643,0l-11.496,74.354l12.152,0l0,3.193l-18.173,0l11.495,-74.627Z" style="fill:#003c6c;fill-rule:nonzero;"/></g></svg>
